Music_Route99:
	channel_count 4
	channel 1, Music_Route99_Ch1
	channel 2, Music_Route99_Ch2
	channel 3, Music_Route99_Ch3
	channel 4, Music_Route99_Ch4

	db $3 ; unused, leftover from a channel 4
	
Music_Route99_Ch1:
	stereo_panning FALSE, TRUE
	tempo 165
	volume 7, 7
	vibrato 19, 1, 3
	duty_cycle 3
	pitch_offset 1
	note_type 12, 14, 1
	rest 2
.mainloop:
	rest 2
	octave 4
	note D_, 1
	note C_, 2
	note E_, 1
	note E_, 2
	note F#, 2
	note F#, 2
	note D_, 2
	note C_, 4
	octave 3
	note A_, 2
	octave 4
	note B_, 2
	note C_, 2
	note A_, 2
	note G_, 2
	note F#, 2
	note D_, 2
	octave 3
	note G_, 4
	note A_, 2
	note F#, 2
	note G_, 1
	note C_, 4
	note A_, 1
	note G_, 2
	note E_, 2
	note G_, 1
	note E_, 1
	octave 4
	note D_, 1
	note E_, 1
	note F#, 2
	note F#, 2
	note D_, 2
	octave 3
	note B_, 2
	note D_, 4
	octave 4
	note C_, 2
	note E_, 2
	note C_, 4
	octave 3
	note A_, 2
	octave 4
	note B_, 2
	note C_, 2
	octave 3
	note A_, 4
	note A_, 2
	note G_, 3
	note E_, 1
	note E_, 2
	note C_, 2
	note D_, 2
	note G_, 2
	note A_, 2
	note C_, 2
	note C_, 4
	note G_, 2
	note F#, 2
	volume_envelope 8, 1
	octave 5
	note D_, 2
	note D_, 2
	volume_envelope 8, 3
	rest 2
.mainloop:
	volume_envelope 8, 3
	rest 2
	octave 4
	note D_, 2
	note C_, 2
	note E_, 2
	note C_, 2
	octave 3
	note E_, 2
	note A_, 2
	rest 4
	octave 4
	note D_, 2
	note C_, 2
	octave 3
	note G_, 2
	note F_, 1
	note G_, 1
	note A_, 2
	rest 2
	note C_, 2
	rest 2
	note F#, 2
	note D_, 2
	octave 4
	note D_, 2
	octave 3
	note A_, 3
	note B_, 4
	note E_, 2
	octave 4
	note D_, 1
	note C_, 2
	note E_, 2
	note E_, 2
	octave 3
	note E_, 2
	volume_envelope 8, 1
	note G_, 2
	note G_, 2
	volume_envelope 8, 3
	rest 2
	rest 2
	octave 4
	note C#, 2
	note C_, 2
	octave 3
	note A_, 2
	note G_, 2
	rest 4
	note D_, 1
	note G_, 1
	octave 4
	note C#, 2
	note C_, 2
	octave 3
	note A_, 2
	note B_, 2
	rest 2
	note G_, 2
	note E_, 1
	note F_, 1
	rest 2
	note G_, 2
	note G_, 2
	note F_, 8
	volume_envelope 11, 4
	note A_, 4
	octave 4
	note C#, 2
	note C_, 2
	note C#, 1
	octave 3
	note B_, 1
	note A_, 1
	note A_, 10
	note E_, 4
	note G_, 1
	note G_, 2
	note F#, 2
	note E_, 2
	volume_envelope 11, 2
	note G_, 6
	volume_envelope 11, 4
	note F_, 4
	note A_, 2
	octave 4
	note D_, 2
	note G_, 2
	rest 2
	rest 2
	octave 3
	note F#, 1
	note F_, 2
	note G_, 1
	volume_envelope 11, 2
	note A_, 4
	rest 2
	volume_envelope 11, 4
	note D_, 1
	note C#, 4
	note E_, 1
	note E_, 2
	note F#, 2
	note F#, 1
	note G_, 1
	note G_, 4
	volume_envelope 11, 3
	note E_, 8
	volume_envelope 11, 4
	note A_, 2
	note A_, 1
	note G_, 2
	note B_, 1
	note A_, 2
	note A_, 1
	note B_, 1
	note A_, 2
	volume_envelope 8, 1
	octave 4
	note C_, 4
	volume_envelope 11, 2
	octave 3
	note A_, 6
	volume_envelope 11, 4
	note G_, 2
	note E_, 2
	note G_, 2
	octave 4
	volume_envelope 8, 3
	note C_, 4
	octave 3
	note F#, 1
	note E_, 1
	rest 2
	note E_, 1
	note F#, 1
	note G_, 6
	note G_, 2
	note E_, 1
	octave 2
	octave 4
	note B_, 1
	note D_, 2
	note C_, 2
	octave 3
	note C#, 2
	note B_, 2
	note E_, 1
	note A_, 2
	note F#, 1
	volume_envelope 11, 2
	note G_, 4
	note_type 8, 8, 3
	note A_, 1
	note B_, 1
	note B_, 4
	note A_, 1
	note_type 12, 8, 3
	volume_envelope 11, 4
	note G_, 1
	note G_, 2
	note E_, 1
	note E_, 2
	note F#, 2
	volume_envelope 8, 1
	octave 4
	note A_, 2
	note C_, 2
	note A_, 2
	volume_envelope 8, 3
	octave 3
	note A_, 1
	note G_, 1
	volume_envelope 7, 7
	volume_envelope 1, -5
	note F#, 4
	note A_, 4
	note E_, 4
	note G_, 2
	note F#, 2
	note E_, 2
	octave 4
	note G_, 2
	note C_, 2
	note F#, 4
	note A_, 3
	octave 3
	note F#, 1
	note E_, 2
	note A_, 2
	note G_, 4
	octave 4
	note C#, 2
	note C_, 2
	octave 3
	note A_, 1
	note E_, 2
	note G_, 1
	duty_cycle 2
	volume_envelope 8, 7
	volume_envelope 11, 2
	octave 6
	note F#, 4
	note A_, 4
	note C_, 2
	note G_, 2
	note F#, 2
	note E_, 3
	note G_, 1
	note G_, 4
	note F#, 2
	note D_, 2
	note E_, 2
	note C#, 2
	note D_, 2
	volume_envelope 8, 1
	octave 5
	note D_, 2
	note D_, 2
	rest 2
	sound_loop 0, .mainloop
	
Music_Route99_Ch2:
	stereo_panning TRUE, FALSE
	vibrato 18, 4, 4
	duty_cycle 3
	note_type 12, 15, 2
	octave 4
	note F#, 1
	note G_, 1
	note C_, 1
	note D_, 1
.mainloop:
	sound_call .sub2
	sound_call .sub1
	note F_, 1
	note E_, 1
	note D_, 2
	note D_, 2
	octave 3
	note A_, 2
	note B_, 2
	note A_, 2
	octave 4
	note F#, 1
	note G_, 1
	sound_call .sub3
	note C#, 2
	note C_, 2
	octave 3
	note E_, 2
	note D_, 2
	note E_, 2
	volume_envelope 8, 1
	note F#, 2
	note F#, 2
	volume_envelope 8, 2
	octave 4
	note C_, 1
	note D_, 1
	sound_call .sub1
	note F_, 1
	note E_, 1
	duty_cycle 2
	note D_, 2
.mainloop:
	volume_envelope 8, 2
	note D_, 2
	sound_call .sub1
	volume_envelope 8, 1
	octave 3
	note B_, 2
	volume_envelope 12, 4
	octave 4
	note C_, 8
	octave 3
	note A_, 2
	note A_, 2
	volume_envelope 8, 2
	octave 4
	note C#, 1
	note C_, 2
	note D_, 1
	note C_, 2
	note F_, 2
	note A_, 2
	note G_, 2
	note F_, 2
	octave 3
	note G_, 2
	note G_, 2
	octave 4
	note C_, 2
	note C_, 2
	note E_, 2
	note G_, 2
	note F_, 2
	note E_, 2
	octave 3
	note F_, 2
	note F_, 2
	note A_, 2
	note A_, 2
	octave 4
	note D_, 2
	note F_, 2
	note E_, 2
	note C#, 1
	note D_, 1
	note D_, 2
	note E_, 2
	note E_, 2
	note E_, 2
	note C#, 1
	note D_, 1
	note E_, 2
	note E_, 2
	note F#, 1
	note E_, 1
	note E_, 1
	note F#, 1
	note D_, 2
	rest 2
	note F#, 2
	note C#, 2
	note D_, 1
	note D_, 2
	note E_, 1
	note C#, 2
	sound_call .sub1
	octave 3
	volume_envelope 8, 1
	note A#, 2
	note A_, 2
	note G_, 2
	note A_, 2
	volume_envelope 8, 2
	note A_, 2
	octave 4
	note C#, 1
	note C_, 2
	note D_, 1
	note C_, 2
	note F_, 2
	note A_, 2
	note G_, 2
	note F_, 2
	octave 3
	note G_, 2
	note G_, 2
	octave 4
	note C_, 2
	note C_, 2
	note E_, 2
	note G_, 2
	note F#, 2
	note F_, 2
	note E_, 2
	note F_, 2
	note E_, 2
	note D_, 2
	note F_, 2
	volume_envelope 12, 2
	note E_, 4
	note D_, 4
	volume_envelope 12, 4
	note C#, 2
	note C_, 2
	octave 3
	note B_, 2
	note G_, 2
	note A_, 2
	octave 4
	note B_, 4
	note E_, 2
	note_type 8, 9, 2
	note C#, 1
	note D_, 1
	note C#, 1
	note_type 12, 9, 2
	octave 3
	note B_, 1
	note G_, 2
	octave 4
	note C#, 1
	note D_, 2
	note C_, 2
	volume_envelope 8, 1
	octave 5
	octave 3
	note D_, 2
	note G_, 2
	note D_, 2
	volume_envelope 8, 2
	octave 4
	note F#, 1
	note E_, 2
	octave 3
	note G_, 1
	note G_, 2
	sound_call .sub2
	rest 4
	note F#, 1
	note G_, 1
	sound_call .sub3
	note_type 8, 9, 2
	note C#, 1
	note D_, 1
	note C#, 1
	note_type 12, 9, 2
	octave 4
	note B_, 1
	octave 5
	note C#, 1
	note D_, 2
	note C_, 2
	volume_envelope 8, 1
	octave 3
	note F#, 2
	note G_, 2
	note F#, 2
	volume_envelope 8, 2
	octave 4
	note E_, 2
	octave 3
	note G_, 2
	volume_envelope 12, 2
	octave 4
	note C_, 2
	note C_, 2
	note C_, 2
	octave 4
	note C_, 1
	note D_, 1
	note E_, 1
	sound_loop 0, .mainloop

.sub1:
	note F#, 2
	note F#, 2
	note F#, 2
	note D_, 1
	note E_, 1
	note F#, 2
	note F#, 2
	note F#, 2
	note D_, 1
	note E_, 1
	note F#, 2
	note F#, 2
	note G_, 3
	note F#, 1
	note E_, 2
	sound_ret

.sub2:
	note A_, 2
	note E_, 2
	note A_, 2
	note G_, 2
	note F#, 2
	note G_, 2
	note C_, 2
	note D_, 2
	octave 5
	note E_, 2
	note C_, 2
	note F_, 1
	note E_, 1
	note D_, 2
	note C#, 2
	octave 4
	octave 3
	note B_, 2
	octave 5
	note D_, 2
	note A_, 2
	note G_, 2
	octave 4
	note A_, 2
	note F#, 2
	note G_, 2
	note C_, 1
	note D_, 3
	note D_, 1
	note F#, 1
	note E_, 2
	sound_ret

.sub3:
	note A_, 2
	note E_, 2
	note A_, 2
	note G_, 2
	note F#, 2
	note G_, 2
	note C_, 2
	note D_, 2
	octave 5
	note D_, 2
	note E_, 2
	note C#, 2
	note C_, 2
	octave 4
	note B_, 3
	note G_, 1
	note A_, 2
	octave 5
	note D_, 2
	sound_ret
	
Music_Route99_Ch3:
	stereo_panning TRUE, TRUE
	vibrato 2, 2, 11
	note_type 12, 2, 5
	rest 2
.mainloop:
	rest 2
	octave 3
	note D_, 1
	note G_, 1
	rest 1
	octave 4
	note A_, 1
	note C_, 1
	rest 1
	octave 4
	note F#, 1
	note E_, 1
	rest 3
	note E_, 1
	rest 1
	octave 3
	note D_, 1
	note A_, 1
	rest 1
	note B_, 1
	rest 1
	octave 4
	note G_, 1
	note E_, 1
	rest 1
	octave 3
	note B_, 1
	note F_, 1
	rest 1
	note D_, 1
	rest 1
	note A_, 1
	rest 1
	octave 4
	note D_, 1
	note C_, 1
	rest 3
	octave 3
	note C#, 1
	rest 1
	note A_, 1
	rest 1
	note G_, 1
	rest 1
	octave 4
	note C#, 1
	note C_, 1
	rest 1
	note C#, 1
	octave 3
	note A_, 1
	note B_, 1
	note D_, 1
	rest 1
	octave 2
	note A_, 1
	octave 3
	note D_, 1
	note F#, 1
	octave 4
	note D_, 1
	octave 3
	note A_, 1
	note F#, 1
	note A_, 1
	note G_, 1
	note D_, 1
	rest 1
	note G_, 1
	note B_, 1
	octave 4
	note G_, 1
	note C_, 1
	note D_, 1
	rest 1
	octave 3
	note B_, 1
	note G_, 1
	octave 2
	note A_, 1
	rest 1
	octave 3
	note C#, 1
	note E_, 1
	note G_, 1
	note E_, 1
	note A_, 1
	octave 4
	note C#, 1
	note C_, 1
	note G_, 1
	note F#, 2
	note A_, 1
	rest 1
	note A_, 1
	note E_, 1
	rest 3
.mainloop:
	octave 3
	note D_, 1
	note C_, 1
	rest 1
	octave 4
	note D_, 2
	note E_, 1
	rest 1
	note E_, 1
	rest 1
	octave 3
	note C#, 1
	note F_, 1
	rest 1
	octave 4
	note C#, 2
	octave 2
	note B_, 1
	note C_, 1
	rest 1
	octave 3
	note B_, 2
	octave 2
	note A_, 1
	note G_, 1
	rest 1
	octave 3
	note A_, 2
	note D_, 1
	note B_, 1
	rest 1
	octave 4
	note D_, 2
	octave 2
	note A_, 1
	note E_, 1
	rest 1
	octave 3
	note A_, 2
	octave 2
	note B_, 1
	note G_, 1
	rest 1
	note G_, 1
	rest 3
	note E_, 4
	note G_, 4
	octave 4
	note C_, 4
	octave 3
	note B_, 2
	note G_, 4
	note F_, 4
	note F#, 4
	octave 2
	octave 4
	note A_, 1
	note C_, 4
	rest 1
	octave 3
	note A_, 2
	note B_, 4
	note C#, 1
	note E_, 4
	rest 1
	note G_, 4
	octave 4
	note C#, 2
	note C_, 4
	octave 2
	note A_, 1
	rest 1
	octave 3
	note A_, 2
	note G_, 2
	note E_, 2
	note G_, 2
	octave 2
	octave 4
	note B_, 1
	note C_, 2
	rest 1
	octave 3
	note B_, 2
	note C_, 1
	note G_, 2
	rest 1
	octave 4
	note C_, 2
	octave 3
	note C#, 1
	note B_, 2
	rest 1
	octave 4
	note C#, 2
	note C_, 2
	octave 2
	note A_, 1
	note D_, 2
	rest 1
	note C_, 6
	octave 3
	note F_, 6
	note A_, 2
	note A_, 4
	octave 4
	note D_, 2
	note C_, 6
	note C#, 1
	octave 3
	note B_, 1
	note G_, 6
	note A_, 2
	note A#, 2
	note B_, 6
	note G_, 1
	note G_, 6
	note E_, 1
	octave 2
	octave 4
	note D_, 1
	rest 1
	octave 3
	note D_, 2
	octave 2
	note E_, 1
	note F_, 2
	rest 1
	octave 3
	note A_, 6
	note E_, 2
	octave 2
	note F#, 1
	rest 1
	octave 3
	note F#, 2
	octave 2
	note A_, 1
	rest 1
	octave 3
	note A_, 2
	octave 4
	note D_, 2
	note E_, 2
	note C#, 2
	octave 3
	note A_, 2
	note G_, 2
	note A_, 6
	octave 4
	note D_, 2
	note C_, 6
	note F#, 2
	note E_, 2
	octave 3
	note E_, 1
	note A_, 4
	rest 1
	note E_, 1
	note G_, 6
	rest 1
	octave 4
	note C_, 6
	note F_, 2
	note E_, 2
	note F_, 6
	note F_, 2
	note E_, 2
	rest 2
	note D_, 2
	octave 3
	note C#, 1
	note B_, 2
	rest 1
	octave 4
	note C#, 2
	note C_, 6
	octave 2
	note B_, 1
	rest 1
	octave 3
	note B_, 2
	octave 2
	note A_, 1
	rest 1
	octave 3
	note A_, 2
	octave 2
	note G_, 1
	note G_, 6
	rest 1
	octave 3
	note G_, 1
	note B_, 1
	octave 4
	note C#, 2
	note C_, 4
	note E_, 1
	note E_, 4
	note C#, 1
	note C_, 4
	octave 3
	note A_, 1
	note G_, 1
	note E_, 1
	note C#, 1
	note D_, 2
	octave 4
	note F#, 1
	rest 1
	note F#, 1
	rest 3
	octave 3
	note D_, 4
	note F#, 4
	note G_, 2
	note A_, 2
	note B_, 3
	note G_, 1
	note F#, 2
	note D_, 2
	octave 2
	note A_, 3
	octave 3
	note D_, 1
	note A_, 1
	note B_, 1
	note A_, 1
	note B_, 1
	note A_, 3
	note G_, 1
	note F#, 2
	note D_, 2
	octave 2
	note A_, 2
	octave 3
	note D_, 2
	note G_, 2
	note F#, 2
	note E_, 3
	note C#, 1
	note D_, 2
	note F#, 2
	note A_, 2
	octave 4
	note C#, 2
	note D_, 2
	octave 5
	note A_, 1
	note C_, 1
	rest 1
	note A_, 1
	note C_, 1
	rest 3
	sound_loop 0, .mainloop
	
Music_Route99_Ch4:
	stereo_panning FALSE, TRUE
	toggle_noise 0
	drum_speed 12
	rest 2
.mainloop:
	rest 2
	drum_note 6, 2
	drum_note 6, 6
	drum_note 6, 2
	drum_note 6, 2
	drum_note 6, 2
	rest 2
	drum_note 6, 4
	drum_note 6, 4
	drum_note 6, 2
	drum_note 6, 4
	sound_loop 0, .mainloop
